<?xml version="1.0" encoding="UTF-8"?>
<svg width="320px" height="39px" viewBox="0 0 320 39" version="1.1" xmlns="http://www.w3.org/2000/svg" xmlns:xlink="http://www.w3.org/1999/xlink">
    <!-- Generator: Sketch 53.2 (72643) - https://sketchapp.com -->
    <title>编组 2</title>
    <desc>Created with Sketch.</desc>
    <g id="2登录" stroke="none" stroke-width="1" fill="none" fill-rule="evenodd">
        <g id="2登录同主站" transform="translate(-110.000000, -145.000000)">
            <g id="编组-2" transform="translate(110.000000, 138.000000)">
                <g id="编组备份" transform="translate(48.837209, 0.000000)" fill="#FFFFFF" font-family="PingFangSC-Medium, PingFang SC" font-size="30" font-weight="400" letter-spacing="0.3">
                    <text id="表格数据可视化平台">
                        <tspan x="0" y="38.4186047">表格数据可视化平台</tspan>
                    </text>
                </g>
                <g id="search-logo-白-copy-2" transform="translate(0.000000, 6.651163)" fill-rule="nonzero" stroke="#FFFFFF" stroke-width="5">
                    <g id="search-logo-白">
                        <path d="M34.8542782,29.4618992 L33.9612115,28.2506431 L34.6136045,26.8945116 C35.6736066,24.6910814 36.2313292,22.2714425 36.2313292,19.7674419 C36.2313292,10.674688 28.8601957,3.30355455 19.7674419,3.30355455 C10.674688,3.30355455 3.30355455,10.674688 3.30355455,19.7674419 C3.30355455,28.8601957 10.674688,36.2313292 19.7674419,36.2313292 C22.6143163,36.2313292 25.3507373,35.5100003 27.7788311,34.1545939 L29.0936107,33.4206599 L30.3571558,34.2396581 C30.8918396,34.5862268 31.5123949,34.7725686 32.1669066,34.7725686 C34.0087996,34.7725686 35.5019489,33.2794193 35.5019489,31.4375264 C35.5019489,30.7134424 35.2735077,30.0304954 34.8542782,29.4618992 Z M39.1193389,29.0620811 C37.1998977,33.0520301 34.0805729,36.3631184 30.2159241,38.5204361 L28.9011445,39.25437 L27.6375994,38.4353718 C25.2846611,36.9102562 23.8318644,34.2960697 23.8318644,31.4375264 C23.8318644,26.8342096 27.5635899,23.1024841 32.1669066,23.1024841 C34.8471417,23.1024841 37.3190132,24.3793555 38.8786652,26.4946935 L39.7717318,27.7059496 L39.1193389,29.0620811 Z" id="Combined-Shape"></path>
                    </g>
                </g>
            </g>
        </g>
    </g>
</svg>